<?xml version="1.0" encoding="utf-8"?>
<!-- Generator: Adobe Illustrator 23.0.2, SVG Export Plug-In . SVG Version: 6.00 Build 0)  -->
<svg version="1.1" id="Layer_1" xmlns="http://www.w3.org/2000/svg" xmlns:xlink="http://www.w3.org/1999/xlink" x="0px" y="0px"
	 viewBox="0 0 260 54" style="enable-background:new 0 0 260 54;" xml:space="preserve">
<style type="text/css">
	.st0{fill:#FF4800;}
	.st1{fill:#FFFFFF;}
	.st2{fill:#4400FF;}
	.st3{fill:#06E2FF;}
	.st4{fill:#1818D3;}
	.st5{fill:none;stroke:#FFFFFF;stroke-width:1.3204;stroke-miterlimit:10;}
	.st6{fill:#0C0CBC;}
	.st7{fill:#2B2BF7;}
	.st8{fill:#5A5AFF;}
	.st9{fill:#1A1AD8;}
	.st10{fill:#8B5CFF;}
	.st11{fill:#283A5E;}
	.st12{fill:none;stroke:#FFFFFF;stroke-width:12;stroke-miterlimit:10;}
	.st13{fill:#0B0BD6;}
	.st14{fill:#FFD31A;}
	.st15{fill:none;stroke:#FFFFFF;stroke-width:2;stroke-linecap:round;stroke-miterlimit:10;}
	.st16{fill:none;stroke:#FFFFFF;stroke-width:1.9309;stroke-linecap:round;stroke-miterlimit:10;}
	.st17{fill:none;stroke:#FFFFFF;stroke-width:4.7975;stroke-miterlimit:10;}
	.st18{opacity:0.32;fill:none;stroke:#FFFFFF;stroke-width:4.7975;stroke-miterlimit:10;}
	.st19{fill:none;stroke:#FFFFFF;stroke-width:4;stroke-miterlimit:10;}
	.st20{fill:#0909B2;}
	.st21{fill:#111170;}
	.st22{fill:#5C8FFF;}
	.st23{fill:#7E5AFF;}
	.st24{opacity:0.5;fill:#2A07A8;}
	.st25{fill:#997DFF;}
	.st26{fill:#2B00FF;}
	.st27{fill:#9071FF;}
	.st28{fill:#2604A3;}
	.st29{fill:#003AFF;}
	.st30{fill:none;stroke:#06E2FF;stroke-width:6;stroke-miterlimit:10;}
	.st31{fill:none;stroke:#FFFFFF;stroke-miterlimit:10;}
	.st32{fill:none;stroke:#FFFFFF;stroke-linecap:round;stroke-miterlimit:10;}
	.st33{fill:#7291D6;}
	.st34{fill:#2F1BFF;}
	.st35{fill:#819BC6;}
</style>
<g>
	<path class="st0" d="M28.61,0.9l-9.79,0.28c-1.13,0.03-2.2,0.45-3.04,1.19C12.63,5.13,4.66,12.56,1.72,22.18
		c-1.94,6.35,3.08,12.71,9.81,12.71l23.28,0c0.56,0,0.81-0.68,0.39-1.04c-2.69-2.29-5.88-6.38,3.35-15.65
		C49.32,7.39,39.94,0.68,28.61,0.9z M24.63,23.31c-0.05,0.15-0.2,0.24-0.36,0.24H11.71c-0.83,0-1.41-0.81-1.13-1.58
		c0.33-0.89,0.85-2.01,1.6-3.09h14.8C25.84,20.28,25.15,21.9,24.63,23.31z M32.64,11.51c-0.42,0.76-1.02,1.55-1.64,2.28H15.44
		c0.93-1.47,2.34-3.1,3.54-4.2c0.33-0.3,0.75-0.47,1.2-0.47l9.38,0C32.46,9.12,33.23,10.43,32.64,11.51z"/>
	<path id="BySyncfusion_3_" class="st11" d="M58.88,50.04h-3.94v-9.26h3.48c1.72,0,2.74,0.98,2.74,2.51c0,0.91-0.46,1.55-1.12,1.84
		c0.9,0.24,1.61,1.06,1.61,2.21C61.66,48.93,60.57,50.04,58.88,50.04z M59.34,43.44c0-0.72-0.44-1.1-1.06-1.1h-1.49v2.19h1.49
		C58.9,44.53,59.34,44.15,59.34,43.44z M59.78,47.26c0-0.76-0.46-1.24-1.12-1.24h-1.87v2.47h1.87C59.32,48.49,59.78,48,59.78,47.26z
		 M66.14,53.11h-1.9l1.2-3.07l-2.51-6.85h1.89l1.52,4.55l1.55-4.55h1.89L66.14,53.11z M76.13,48.3l0.81-0.86
		c0.7,0.73,1.41,1.15,2.39,1.15c0.89,0,1.54-0.44,1.54-1.13c0-0.61-0.39-1.12-1.88-1.43c-1.85-0.39-2.84-1.35-2.84-2.73
		c0-1.57,1.28-2.67,3.08-2.67c1.75,0,3.09,0.91,3.33,2.8h-1.89c-0.14-0.79-0.63-1.21-1.36-1.21c-0.72,0-1.26,0.38-1.26,0.94
		c0,0.63,0.46,1.06,1.77,1.36c2.07,0.48,2.95,1.44,2.95,2.9c0,1.62-1.29,2.79-3.4,2.79C78.23,50.2,77.06,49.6,76.13,48.3z
		 M87.18,53.11h-1.9l1.2-3.07l-2.51-6.85h1.89l1.52,4.55l1.55-4.55h1.89L87.18,53.11z M96.33,43.03c1.61,0,2.72,1.11,2.72,2.77v4.24
		h-1.82v-4.05c0-0.76-0.59-1.36-1.3-1.36c-0.84,0-1.55,0.64-1.55,1.67v3.73h-1.82v-6.85h1.82v0.77
		C94.86,43.38,95.54,43.03,96.33,43.03z M106.76,47.54l0.97,0.75c-0.69,1.27-1.72,1.91-3.04,1.91c-2.17,0-3.74-1.58-3.74-3.58
		s1.56-3.58,3.6-3.58c1.75,0,2.95,0.95,3.36,2.46h-1.98c-0.22-0.52-0.69-0.85-1.38-0.85c-0.99,0-1.78,0.87-1.78,1.98
		c0,1.12,0.79,1.98,1.98,1.98C105.58,48.59,106.26,48.19,106.76,47.54z M113.79,40.45v1.45c-0.18-0.02-0.42-0.03-0.61-0.03
		c-0.75,0-1.04,0.31-1.04,0.95v0.37h1.66v1.58h-1.66v5.27h-1.82v-5.27h-1.16v-1.58h1.16V42.8c0-1.62,0.91-2.41,2.69-2.41
		C113.28,40.39,113.58,40.42,113.79,40.45z M118.26,50.2c-1.61,0-2.72-1.11-2.72-2.77v-4.24h1.82v4.05c0,0.76,0.59,1.36,1.3,1.36
		c0.86,0,1.55-0.67,1.55-1.75v-3.65h1.82v6.85h-1.82v-0.76C119.73,49.86,119.04,50.2,118.26,50.2z M124.22,48.77l0.75-0.84
		c0.54,0.52,1.06,0.81,1.74,0.81c0.63,0,1-0.26,1-0.68c0-0.41-0.29-0.66-1.18-0.84c-1.49-0.3-2.23-1.06-2.23-2.19
		c0-1.15,0.99-2,2.47-2c1.55,0,2.45,0.85,2.67,2.16h-1.71c-0.09-0.44-0.39-0.71-0.87-0.71c-0.43,0-0.79,0.22-0.79,0.57
		c0,0.36,0.32,0.66,1.09,0.82c1.59,0.32,2.31,1.05,2.31,2.21c0,1.21-1.01,2.12-2.71,2.12C125.75,50.2,124.92,49.7,124.22,48.77z
		 M131.55,50.04v-6.85h1.82v6.85H131.55z M131.38,41.37c0-0.59,0.47-1.05,1.08-1.05s1.08,0.46,1.08,1.05c0,0.59-0.47,1.05-1.08,1.05
		S131.38,41.96,131.38,41.37z M135.45,46.62c0-2,1.63-3.58,3.8-3.58c2.18,0,3.8,1.58,3.8,3.58s-1.62,3.58-3.8,3.58
		C137.07,50.2,135.45,48.62,135.45,46.62z M137.27,46.62c0,1.12,0.86,1.98,1.98,1.98c1.12,0,1.98-0.86,1.98-1.98
		c0-1.11-0.86-1.98-1.98-1.98C138.13,44.64,137.27,45.51,137.27,46.62z M148.86,43.03c1.61,0,2.72,1.11,2.72,2.77v4.24h-1.82v-4.05
		c0-0.76-0.59-1.36-1.3-1.36c-0.84,0-1.55,0.64-1.55,1.67v3.73h-1.82v-6.85h1.82v0.77C147.39,43.38,148.07,43.03,148.86,43.03z"/>
	<g>
		<path class="st11" d="M54.94,31.53V8.25h9.01c4.34,0,7.04,2.53,7.04,6.3c0,2.25-1.16,3.98-2.88,4.71
			c2.31,0.63,4.06,2.66,4.06,5.47c0,3.96-2.89,6.8-7.15,6.8H54.94z M63.54,12.67h-3.26v4.82h3.26c1.36,0,2.33-0.86,2.33-2.41
			C65.87,13.54,64.91,12.67,63.54,12.67z M64.22,21.75h-3.94v5.36h3.94c1.46,0,2.49-1.06,2.49-2.68
			C66.72,22.8,65.69,21.75,64.22,21.75z"/>
		<path class="st11" d="M84.07,13.9c5.51,0,9.65,3.96,9.65,9.01c0,5.06-4.14,9.01-9.65,9.01c-5.51,0-9.65-3.96-9.65-9.01
			C74.43,17.86,78.57,13.9,84.07,13.9z M84.07,27.24c2.48,0,4.34-1.86,4.34-4.32c0-2.45-1.86-4.32-4.34-4.32
			c-2.48,0-4.34,1.88-4.34,4.32C79.73,25.38,81.6,27.24,84.07,27.24z"/>
		<path class="st11" d="M96.82,7.25h5.34v24.28h-5.34V7.25z"/>
		<path class="st11" d="M113.4,13.9c2.26,0,4.12,0.86,5.47,2.3V7.25h5.26v24.28h-5.26v-1.9c-1.35,1.43-3.21,2.3-5.47,2.3
			c-4.74,0-8.1-3.96-8.1-9.01C105.3,17.86,108.66,13.9,113.4,13.9z M114.72,27.24c2.33,0,4.16-1.86,4.16-4.32
			c0-2.45-1.83-4.32-4.16-4.32c-2.31,0-4.11,1.88-4.11,4.32C110.61,25.38,112.4,27.24,114.72,27.24z"/>
		<path class="st11" d="M143.33,8.25c4.87,0,8.22,3.06,8.22,7.58c0,3.29-1.75,5.79-4.62,6.85l5.24,8.85h-5.97l-4.64-8.12h-1.38v8.12
			h-5.46V8.25H143.33z M140.17,12.64v6.64h2.59c2.1,0,3.33-1.35,3.33-3.31c0-2-1.23-3.33-3.33-3.33H140.17z"/>
		<path class="st11" d="M163.7,27.91c2.28,0,3.98-0.68,5.57-2.1l2.26,2.53c-1.88,2.1-4.36,3.59-7.9,3.59
			c-5.95,0-9.93-3.96-9.93-9.01c0-5.06,4.07-9.01,9.45-9.01c5.27,0,9.11,3.89,9.11,8.73c0,0.58-0.1,1.26-0.25,1.76h-12.96
			C159.44,26.58,161.14,27.91,163.7,27.91z M159.14,21.02h7.68c-0.42-1.9-1.76-3.09-3.74-3.09
			C161.14,17.93,159.66,19.09,159.14,21.02z"/>
		<path class="st11" d="M186.08,31.93c-2.26,0-4.14-0.86-5.47-2.3v9.61h-5.26V14.3h5.26v1.9c1.33-1.43,3.21-2.3,5.47-2.3
			c4.72,0,8.1,3.96,8.1,9.01C194.18,27.97,190.8,31.93,186.08,31.93z M184.75,18.59c-2.31,0-4.14,1.88-4.14,4.32
			c0,2.46,1.83,4.32,4.14,4.32c2.31,0,4.12-1.86,4.12-4.32C188.87,20.47,187.06,18.59,184.75,18.59z"/>
		<path class="st11" d="M205.85,13.9c5.51,0,9.65,3.96,9.65,9.01c0,5.06-4.14,9.01-9.65,9.01c-5.51,0-9.65-3.96-9.65-9.01
			C196.2,17.86,200.34,13.9,205.85,13.9z M205.85,27.24c2.48,0,4.34-1.86,4.34-4.32c0-2.45-1.86-4.32-4.34-4.32
			c-2.48,0-4.34,1.88-4.34,4.32C201.5,25.38,203.37,27.24,205.85,27.24z"/>
		<path class="st11" d="M223.92,22.39v9.15h-5.34V14.3h5.34v1.95c1.1-1.43,2.61-2.35,4.56-2.35c0.48,0,0.95,0.12,1.28,0.27
			l-0.38,4.81c-0.67-0.23-1.43-0.38-2.1-0.38C225.48,18.59,223.92,19.98,223.92,22.39z"/>
		<path class="st11" d="M239,25.3c0,1.38,0.63,2.01,2.21,2.01c0.57,0,1.26-0.03,1.75-0.1v3.94c-0.86,0.52-2.08,0.78-3.38,0.78
			c-3.68,0-5.94-2.23-5.94-6.09v-6.92h-2.83V14.3h2.83v-4.19l5.36-0.8v4.99h3.76v4.62H239V25.3z"/>
		<path class="st11" d="M246.97,25.96c1.36,1.26,2.83,1.91,4.47,1.91c1.33,0,2.1-0.53,2.1-1.38c0-0.85-0.67-1.38-2.64-1.8
			c-3.63-0.77-5.57-2.74-5.57-5.62c0-2.99,2.61-5.17,6.39-5.17c4.09,0,6.37,2.35,6.84,5.62h-4.62c-0.2-0.98-0.88-1.56-1.91-1.56
			c-0.95,0-1.65,0.45-1.65,1.18c0,0.77,0.65,1.36,2.53,1.76c3.94,0.83,5.8,2.74,5.8,5.62c0,3.09-2.71,5.41-6.94,5.41
			c-2.56,0-4.86-1.25-6.74-3.64L246.97,25.96z"/>
	</g>
</g>
</svg>
